<?xml version="1.0" standalone="no"?>
<!DOCTYPE svg PUBLIC "-//W3C//DTD SVG 20010904//EN"
 "http://www.w3.org/TR/2001/REC-SVG-20010904/DTD/svg10.dtd">
<svg version="1.0" xmlns="http://www.w3.org/2000/svg"
 width="400.000000pt" height="400.000000pt" viewBox="0 0 400.000000 400.000000"
 preserveAspectRatio="xMidYMid meet">

<g transform="translate(0.000000,400.000000) scale(0.100000,-0.100000)"
fill="#000000" stroke="none">
<path d="M2310 3513 c-33 -12 -64 -52 -107 -137 -24 -48 -54 -98 -67 -110 -37
-35 -119 -144 -189 -251 -89 -138 -105 -150 -242 -195 -141 -46 -246 -109
-307 -185 -13 -16 -60 -82 -103 -145 -166 -245 -275 -360 -424 -450 -111 -66
-298 -148 -374 -164 -36 -8 -70 -17 -76 -20 -6 -4 3 -29 22 -64 18 -31 39 -70
47 -86 19 -37 112 -113 163 -133 l38 -16 -85 -46 c-146 -79 -410 -291 -388
-313 5 -5 29 -9 53 -10 l43 0 -29 -24 c-51 -40 -163 -93 -225 -105 l-60 -12 0
-37 c0 -33 4 -39 28 -45 l27 -7 -28 -22 c-24 -19 -27 -28 -27 -81 l0 -60 59
-17 c61 -18 113 -55 211 -148 59 -56 185 -135 232 -145 93 -21 -6 -101 -160
-131 -42 -8 -77 -16 -79 -18 -5 -4 132 -44 197 -56 124 -24 377 -6 482 35 14
5 16 2 13 -14 -7 -36 27 -168 59 -234 30 -60 32 -62 74 -65 29 -2 58 4 89 19
49 24 158 32 198 16 20 -8 20 -9 1 -23 -17 -12 42 -14 462 -14 379 0 482 3
482 13 0 6 9 80 20 162 21 155 42 252 111 504 32 117 41 170 46 265 6 127 19
136 30 21 3 -36 10 -65 14 -65 17 0 39 108 48 235 6 72 13 255 16 409 6 292
14 366 46 427 21 43 89 126 202 249 129 141 141 172 152 412 6 129 5 138 -14
157 -12 12 -30 21 -40 21 -23 0 -107 -43 -201 -104 -39 -25 -76 -46 -82 -46
-8 0 -9 50 -6 173 3 96 2 198 -3 228 -14 89 -60 168 -164 279 -52 55 -95 108
-95 116 0 19 -45 64 -62 63 -7 0 -20 -3 -28 -6z"/>
</g>
</svg>
